PathFileType	4	(X/Y/Z)	/Users/itak/Documents/Research/Walk-IL/dataset/trc/00358_00011.trc
DataRate	CameraRate	NumFrames	NumMarkers	Units	OrigDataRate	OrigDataStartFrame	OrigNumFrames
100.000000	100.000000	4	53	mm	100.000000	146	586
Frame#	Time	RPSI			LPSI			L3			STRN			T10			C7			CLAV			RBAK			LBAK			LSHO			LUPA			LAEL			LAOL			LWTS			LWPS			LFRA			LIFD			LHPS			LHTS			RSHO			RUPA			RAEL			RAOL			RWTS			RWPS			RFRA			RIFD			RHTS			RHPS			RBHD			LFHD			RFHD			LBHD			LHIP			RHIP			RASI			LASI			LKNE			LTHI			LANK			LTIP			LTOE			LMT1			LMT5			LHEE			RKNE			RTHI			RANK			RTIP			RTOE			RMT1			RMT5			RHEE			
		X1	Y1	Z1	X2	Y2	Z2	X3	Y3	Z3	X4	Y4	Z4	X5	Y5	Z5	X6	Y6	Z6	X7	Y7	Z7	X8	Y8	Z8	X9	Y9	Z9	X10	Y10	Z10	X11	Y11	Z11	X12	Y12	Z12	X13	Y13	Z13	X14	Y14	Z14	X15	Y15	Z15	X16	Y16	Z16	X17	Y17	Z17	X18	Y18	Z18	X19	Y19	Z19	X20	Y20	Z20	X21	Y21	Z21	X22	Y22	Z22	X23	Y23	Z23	X24	Y24	Z24	X25	Y25	Z25	X26	Y26	Z26	X27	Y27	Z27	X28	Y28	Z28	X29	Y29	Z29	X30	Y30	Z30	X31	Y31	Z31	X32	Y32	Z32	X33	Y33	Z33	X34	Y34	Z34	X35	Y35	Z35	X36	Y36	Z36	X37	Y37	Z37	X38	Y38	Z38	X39	Y39	Z39	X40	Y40	Z40	X41	Y41	Z41	X42	Y42	Z42	X43	Y43	Z43	X44	Y44	Z44	X45	Y45	Z45	X46	Y46	Z46	X47	Y47	Z47	X48	Y48	Z48	X49	Y49	Z49	X50	Y50	Z50	X51	Y51	Z51	X52	Y52	Z52	X53	Y53	Z53	

147	1.46	-1324.880981445312	987.4053955078125	803.7062377929688	-1315.431884765625	984.7552490234375	675.0021362304688	-1316.938110351562	1037.338012695312	742.2372436523438	-1089.621948242188	1218.482543945312	742.020751953125	-1324.836791992188	1156.261840820312	727.52880859375	-1282.50830078125	1404.715454101562	712.0721435546875	-1128.2978515625	1345.52587890625	733.1224365234375	-1336.012329101562	1267.478271484375	776.7431030273438	-1283.830444335938	1365.797485351562	610.2029418945312	-1193.269775390625	1380.7509765625	562.0823364257812	-1204.791259765625	1259.104125976562	495.2000122070312	-1183.891357421875	1054.55908203125	490.208251953125	-1252.27294921875	1042.025268554688	538.80029296875	-1090.010498046875	815.8360595703125	551.4495239257812	-1125.07080078125	801.077880859375	493.0625305175781	-1166.984008789062	950.0595092773438	488.2302551269531	-1088.989135742188	651.2482299804688	555.1234741210938	-1128.19677734375	731.8474731445312	500.0029296875	-1078.385131835938	735.2814331054688	539.75732421875	-1240.074340820312	1393.821533203125	880.9322509765625	-1257.559448242188	1329.103393554688	942.7510986328125	-1257.82373046875	1061.482543945312	982.5399780273438	-1290.968139648438	1054.622192382812	894.469482421875	-1140.0654296875	836.7307739257812	939.3277587890625	-1179.39208984375	818.4645385742188	1002.616088867188	-1232.26416015625	994.0480346679688	992.6239013671875	-1124.536499023438	664.42041015625	945.9765014648438	-1108.749755859375	738.32861328125	953.7466430664062	-1161.57861328125	736.1436767578125	1000.053039550781	-1251.468139648438	1610.19970703125	797.8941650390625	-1075.652221679688	1626.96240234375	687.8594360351562	-1089.66259765625	1628.143188476562	787.2849731445312	-1257.461181640625	1603.2275390625	653.6185302734375	-1228.471435546875	923.6828002929688	574.4306030273438	-1254.878540039062	933.6092529296875	920.9171752929688	-1144.8837890625	955.3055419921875	880.2233276367188	-1109.030639648438	939.9785766601562	643.387939453125	-1224.762939453125	466.67041015625	568.9523315429688	-1205.551879882812	602.9274291992188	567.2858276367188	-1316.169555664062	49.97520065307617	552.5503540039062	-1270.850463867188	253.1300506591797	546.4493408203125	-1115.571411132812	45.50885009765625	629.6380615234375	-1187.82421875	35.38491439819336	664.8603515625	-1188.83740234375	46.15150833129883	551.048583984375	-1356.092895507812	45.81451416015625	616.063720703125	-1218.99072265625	466.8043212890625	919.2265625	-1202.1318359375	722.8658447265625	920.527099609375	-1330.94580078125	60.34033203125	911.959716796875	-1224.902221679688	346.1173400878906	916.1671752929688	-1134.28662109375	44.30230331420898	886.8172607421875	-1184.30908203125	41.55110931396484	838.135986328125	-1235.432250976562	44.97946548461914	944.7510375976562	-1375.06005859375	63.68102645874023	858.7347412109375	
148	1.47	-1324.790283203125	987.205078125	804.8934936523438	-1315.235229492188	984.6851806640625	676.2371826171875	-1316.762817382812	1037.441040039062	743.3551025390625	-1088.925659179688	1218.233032226562	743.0980224609375	-1324.329223632812	1156.327026367188	728.5160522460938	-1281.5380859375	1404.681274414062	712.7999877929688	-1127.507202148438	1345.2099609375	734.1387939453125	-1335.4599609375	1267.649780273438	777.60791015625	-1282.76123046875	1365.626708984375	610.9520874023438	-1192.109375	1380.471923828125	562.9426879882812	-1203.712646484375	1258.927368164062	496.0090942382812	-1182.964721679688	1054.292114257812	490.7393493652344	-1251.393920898438	1041.796630859375	539.22021484375	-1089.242797851562	815.6082763671875	551.8368530273438	-1124.319580078125	800.8017578125	493.3703918457031	-1166.112670898438	949.8444213867188	488.6380004882812	-1088.427612304688	650.9384765625	555.1732788085938	-1127.37060546875	731.6502685546875	499.9534301757812	-1077.700317382812	734.9338989257812	539.9175415039062	-1239.317626953125	1393.893432617188	881.6935424804688	-1257.00927734375	1329.227783203125	943.5921020507812	-1257.533203125	1061.575317382812	983.5335693359375	-1290.598022460938	1054.693969726562	895.4341430664062	-1139.743041992188	836.8507690429688	940.5150756835938	-1179.083618164062	818.640869140625	1003.746643066406	-1231.980102539062	994.0888671875	993.6695556640625	-1123.863891601562	664.63037109375	947.1121826171875	-1108.35205078125	738.4354858398438	954.9697875976562	-1161.100952148438	736.2320556640625	1001.153198242188	-1250.314086914062	1610.068603515625	798.576171875	-1074.650512695312	1626.592651367188	688.284423828125	-1088.478515625	1627.899047851562	787.64990234375	-1256.542724609375	1602.948364257812	654.3424682617188	-1228.335815429688	923.62890625	575.5751342773438	-1254.785888671875	933.2211303710938	922.0030517578125	-1144.850463867188	954.9615478515625	881.3961791992188	-1108.836181640625	939.8148193359375	644.6494750976562	-1224.342895507812	466.5630798339844	569.527587890625	-1205.1962890625	602.9412841796875	568.1022338867188	-1316.166748046875	49.98410034179688	552.5361328125	-1270.57373046875	253.1008911132812	546.7339477539062	-1115.562377929688	45.51916885375977	629.6407470703125	-1187.831298828125	35.38248062133789	664.8641357421875	-1188.859375	46.17605972290039	551.0637817382812	-1356.105346679688	45.76787185668945	616.0393676757812	-1216.756958007812	466.2468872070312	919.0681762695312	-1202.094604492188	722.4512939453125	921.500244140625	-1330.659301757812	60.42005157470703	910.421142578125	-1223.039184570312	345.4227905273438	915.8478393554688	-1133.822509765625	44.18382263183594	886.7657470703125	-1183.5478515625	41.60406494140625	837.6759033203125	-1235.444702148438	45.22129821777344	943.9076538085938	-1374.450561523438	63.64460372924805	856.8656005859375	
149	1.48	-1324.660766601562	986.9154663085938	806.2311401367188	-1315.052612304688	984.5498046875	677.6024780273438	-1316.586547851562	1037.4990234375	744.611328125	-1088.269409179688	1217.927856445312	744.2941284179688	-1323.798461914062	1156.366455078125	729.6239013671875	-1280.565307617188	1404.614624023438	713.6163330078125	-1126.697875976562	1344.85986328125	735.2195434570312	-1334.880615234375	1267.7822265625	778.5677490234375	-1281.693725585938	1365.404663085938	611.7850341796875	-1190.967651367188	1380.148559570312	563.8842163085938	-1202.660888671875	1258.68359375	496.8984375	-1182.061645507812	1053.97021484375	491.3101501464844	-1250.530639648438	1041.4931640625	539.6889038085938	-1088.409912109375	815.35888671875	552.2034301757812	-1123.5517578125	800.5132446289062	493.6854858398438	-1165.259765625	949.5872192382812	489.0874633789062	-1087.865478515625	650.5546264648438	555.268798828125	-1126.540405273438	731.4923095703125	499.7197570800781	-1076.996337890625	734.5360717773438	540.0867919921875	-1238.541137695312	1393.965698242188	882.5458984375	-1256.408325195312	1329.343505859375	944.5011596679688	-1257.22119140625	1061.658935546875	984.6015014648438	-1290.218383789062	1054.757690429688	896.4777221679688	-1139.41552734375	836.9686279296875	941.7339477539062	-1178.77978515625	818.816162109375	1004.941284179688	-1231.6767578125	994.1309204101562	994.7981567382812	-1123.257202148438	664.761962890625	948.2971801757812	-1107.95361328125	738.514404296875	956.1754150390625	-1160.604736328125	736.25244140625	1002.285888671875	-1249.09765625	1609.908569335938	799.2802734375	-1073.613891601562	1626.17724609375	688.703857421875	-1087.259521484375	1627.613037109375	788.0594482421875	-1255.59814453125	1602.6572265625	655.1046142578125	-1228.149047851562	923.5682983398438	576.8663940429688	-1254.617553710938	932.7409057617188	923.163330078125	-1144.74365234375	954.52685546875	882.6422729492188	-1108.654418945312	939.6922607421875	646.0247192382812	-1223.867919921875	466.4436645507812	570.1334228515625	-1204.773315429688	602.9664306640625	568.9487915039062	-1316.162353515625	49.9988899230957	552.5284423828125	-1270.295776367188	253.0817260742188	547.052001953125	-1115.554321289062	45.53047561645508	629.6416015625	-1187.83837890625	35.37261581420898	664.8687133789062	-1188.882446289062	46.20518112182617	551.0820922851562	-1356.122680664062	45.72244644165039	616.0206909179688	-1214.657836914062	465.6318969726562	918.9388427734375	-1201.982177734375	721.9444580078125	922.5479125976562	-1330.351196289062	60.45248794555664	908.9639282226562	-1221.2939453125	344.6813049316406	915.55615234375	-1133.385375976562	44.06657409667969	886.7166137695312	-1182.803588867188	41.69606399536133	837.22021484375	-1235.426025390625	45.42678833007812	943.0990600585938	-1373.846557617188	63.55069351196289	855.0901489257812	
150	1.49	-1324.47998046875	986.5377197265625	807.7139282226562	-1314.864868164062	984.3569946289062	679.08544921875	-1316.406494140625	1037.4990234375	746.0003051757812	-1087.643798828125	1217.569946289062	745.6039428710938	-1323.24462890625	1156.37451171875	730.8566284179688	-1279.594848632812	1404.509521484375	714.52392578125	-1125.86572265625	1344.48193359375	736.3618774414062	-1334.26611328125	1267.866821289062	779.6212768554688	-1280.639404296875	1365.127563476562	612.7129516601562	-1189.853149414062	1379.775024414062	564.9152221679688	-1201.641845703125	1258.366333007812	497.8757934570312	-1181.184692382812	1053.601196289062	491.9352722167969	-1249.695434570312	1041.120239257812	540.2186889648438	-1087.524291992188	815.0616455078125	552.5547485351562	-1122.777954101562	800.2076416015625	494.0051879882812	-1164.431884765625	949.2833251953125	489.5889282226562	-1087.27685546875	650.1011352539062	555.4176025390625	-1125.716186523438	731.3768920898438	499.3283386230469	-1076.284790039062	734.0989379882812	540.28564453125	-1237.74365234375	1394.031616210938	883.4942626953125	-1255.754516601562	1329.450317382812	945.484619140625	-1256.885986328125	1061.743774414062	985.7499389648438	-1289.822143554688	1054.821533203125	897.6043701171875	-1139.077514648438	837.0897827148438	942.9847412109375	-1178.466430664062	818.9783325195312	1006.19189453125	-1231.350463867188	994.1774291992188	996.0051879882812	-1122.737548828125	664.823974609375	949.5293579101562	-1107.571411132812	738.5660400390625	957.360107421875	-1160.107055664062	736.2249755859375	1003.457275390625	-1247.81689453125	1609.730712890625	800.0065307617188	-1072.536254882812	1625.712768554688	689.1192626953125	-1086.006713867188	1627.286376953125	788.5180053710938	-1254.619873046875	1602.35986328125	655.9049682617188	-1227.911010742188	923.5039672851562	578.2952270507812	-1254.365966796875	932.1851196289062	924.4024047851562	-1144.556518554688	954.0183715820312	883.9660034179688	-1108.49609375	939.5906372070312	647.5335693359375	-1223.314086914062	466.3208618164062	570.7805786132812	-1204.295532226562	603.0003662109375	569.8228149414062	-1316.157470703125	50.02020263671875	552.5276489257812	-1270.001831054688	253.071044921875	547.4133911132812	-1115.547607421875	45.54246520996094	629.6414794921875	-1187.847290039062	35.35260391235352	664.8745727539062	-1188.904663085938	46.23963928222656	551.1041259765625	-1356.145874023438	45.67831802368164	616.0076904296875	-1212.756591796875	464.9653930664062	918.8602294921875	-1201.786865234375	721.3616943359375	923.674560546875	-1330.047729492188	60.4349365234375	907.6298217773438	-1219.7060546875	343.9046325683594	915.3036499023438	-1132.991088867188	43.9530029296875	886.6646118164062	-1182.108032226562	41.80705642700195	836.7852172851562	-1235.379760742188	45.59204483032227	942.3356323242188	-1373.266967773438	63.39222717285156	853.4647827148438	
